<svg xmlns="http://www.w3.org/2000/svg" viewBox="-20 -50 40 60" width="40" height="60">
  <defs>
    <linearGradient id="trunkGrad" x1="0%" y1="0%" x2="100%" y2="0%">
      <stop offset="0%" style="stop-color:#3e2723"/>
      <stop offset="50%" style="stop-color:#5d4037"/>
      <stop offset="100%" style="stop-color:#4e342e"/>
    </linearGradient>
  </defs>
  <rect x="-4" y="-5" width="8" height="25" fill="url(#trunkGrad)"/>
  <path d="M-4,15 Q-8,20 -6,25 L-4,25 L-4,15" fill="#3e2723"/>
  <path d="M4,10 Q10,18 6,22 L4,20 L4,10" fill="#4e342e"/>
  <polygon points="0,-50 20,-20 10,0 -10,0 -20,-20" fill="#2e7d32"/>
  <polygon points="0,-45 15,-18 8,0 -8,0 -15,-18" fill="#388e3c"/>
  <polygon points="0,-40 12,-15 6,0 -6,0 -12,-15" fill="#43a047"/>
  <polygon points="0,-35 8,-12 4,0 -4,0 -8,-12" fill="#4caf50"/>
  <circle cx="-8" cy="-30" r="4" fill="#1b5e20" opacity="0.3"/>
  <circle cx="10" cy="-25" r="3" fill="#1b5e20" opacity="0.3"/>
  <circle cx="0" cy="-38" r="5" fill="rgba(255,255,255,0.15)"/>
</svg>